<svg width="192" height="192" viewBox="0 0 192 192" xmlns="http://www.w3.org/2000/svg">
  <defs>
    <linearGradient id="bgGradient" x1="0%" y1="0%" x2="100%" y2="100%">
      <stop offset="0%" style="stop-color:#1e1b4b;stop-opacity:1" />
      <stop offset="100%" style="stop-color:#312e81;stop-opacity:1" />
    </linearGradient>
    <linearGradient id="brainGradient" x1="0%" y1="0%" x2="100%" y2="100%">
      <stop offset="0%" style="stop-color:#fbbf24;stop-opacity:1" />
      <stop offset="50%" style="stop-color:#f59e0b;stop-opacity:1" />
      <stop offset="100%" style="stop-color:#d97706;stop-opacity:1" />
    </linearGradient>
    <filter id="glow">
      <feGaussianBlur stdDeviation="3" result="coloredBlur"/>
      <feMerge> 
        <feMergeNode in="coloredBlur"/>
        <feMergeNode in="SourceGraphic"/>
      </feMerge>
    </filter>
  </defs>
  
  <!-- Background -->
  <rect width="192" height="192" rx="24" fill="url(#bgGradient)"/>
  
  <!-- Brain Icon -->
  <g transform="translate(96,96)">
    <!-- Brain outline -->
    <path d="M-40,-30 C-45,-35 -35,-45 -25,-40 C-15,-45 -5,-35 -10,-25 C0,-30 10,-20 5,-10 C15,-15 25,-5 20,5 C30,0 40,10 35,20 C45,15 50,25 40,30 C35,40 25,35 15,30 C5,35 -5,25 -15,30 C-25,35 -35,25 -40,20 C-50,15 -45,5 -35,10 C-40,0 -30,-10 -25,-15 C-35,-20 -40,-30 -40,-30 Z" 
          fill="url(#brainGradient)" 
          filter="url(#glow)"
          stroke="#fbbf24" 
          stroke-width="2"/>
    
    <!-- Brain details -->
    <path d="M-30,-20 C-20,-15 -10,-20 0,-15 C10,-20 20,-15 30,-10" 
          fill="none" 
          stroke="#1e1b4b" 
          stroke-width="2" 
          opacity="0.3"/>
    <path d="M-25,-5 C-15,0 -5,-5 5,0 C15,-5 25,0 30,10" 
          fill="none" 
          stroke="#1e1b4b" 
          stroke-width="2" 
          opacity="0.3"/>
    <path d="M-30,10 C-20,15 -10,10 0,15 C10,10 20,15 25,20" 
          fill="none" 
          stroke="#1e1b4b" 
          stroke-width="2" 
          opacity="0.3"/>
  </g>
  
  <!-- Flip arrows -->
  <g transform="translate(96,140)" opacity="0.8">
    <path d="M-20,-5 L-10,-10 L-10,-7 L10,-7 L10,-10 L20,-5 L10,0 L10,-3 L-10,-3 L-10,0 Z" 
          fill="#3b82f6" 
          filter="url(#glow)"/>
  </g>
  
  <!-- Game elements -->
  <circle cx="60" cy="60" r="8" fill="#10b981" opacity="0.6" filter="url(#glow)"/>
  <circle cx="132" cy="60" r="8" fill="#ef4444" opacity="0.6" filter="url(#glow)"/>
  <circle cx="60" cy="132" r="8" fill="#8b5cf6" opacity="0.6" filter="url(#glow)"/>
  <circle cx="132" cy="132" r="8" fill="#f59e0b" opacity="0.6" filter="url(#glow)"/>
</svg>